<svg aria-hidden="true" style="width:0;height:0;position:absolute;overflow:hidden" xmlns="http://www.w3.org/2000/svg"><defs><symbol id="icon-arrow" viewBox="0 0 31 32"><path d="M22.374 23.046V9.557a.845.845 0 0 0-.519-.777.848.848 0 0 0-.322-.064H8.044v1.683h11.457L7.448 22.452l1.19 1.19 12.053-12.053v11.457h1.683z"/></symbol><symbol id="icon-arrow-2" viewBox="0 0 32 32"><path fill="#fff" style="fill:var(--color1,#fff)" d="M31.2 9.56 16.892 23.867a1.273 1.273 0 0 1-.892.37 1.269 1.269 0 0 1-.892-.37L.8 9.56l1.785-1.785L16 21.19 29.415 7.775 31.2 9.56z"/></symbol><symbol id="icon-burger" viewBox="0 0 51 32"><path fill="none" stroke="#fff" style="stroke:var(--color1,#fff)" stroke-linecap="round" stroke-width="1.882" d="M1.882 1.882h47.059M1.882 16h47.059M1.882 30.118h47.059"/></symbol><symbol id="icon-facebook" viewBox="0 0 32 32"><path d="M27.313 0H4.688A4.693 4.693 0 0 0 0 4.688v22.625A4.692 4.692 0 0 0 4.688 32h22.625A4.692 4.692 0 0 0 32 27.313V4.688A4.693 4.693 0 0 0 27.313 0zm-8.501 19.687v10.438h-1.875V19.687a.938.938 0 0 0-.938-.938h-2.812v-1.875h2.812c.518 0 .938-.42.938-.938v-3.75a4.693 4.693 0 0 1 4.687-4.688h2.813v1.875h-2.813a2.815 2.815 0 0 0-2.812 2.813v3.75c0 .518.42.938.938.938h4.424l-.469 1.875h-3.956a.938.938 0 0 0-.938.938zm11.313 7.626a2.815 2.815 0 0 1-2.812 2.812h-6.625v-9.5h3.75c.43 0 .805-.293.909-.71l.938-3.75A.938.938 0 0 0 25.376 15h-4.688v-2.812a.94.94 0 0 1 .938-.938h3.75c.518 0 .938-.42.938-.938v-3.75a.938.938 0 0 0-.938-.938h-3.75a6.57 6.57 0 0 0-6.562 6.563v2.812h-2.812a.938.938 0 0 0-.938.938v3.75c0 .518.42.931.938.931h2.812v9.506H4.689a2.816 2.816 0 0 1-2.813-2.812V4.687a2.816 2.816 0 0 1 2.813-2.813h22.625a2.815 2.815 0 0 1 2.812 2.813v22.625z"/></symbol><symbol id="icon-instagram" viewBox="0 0 32 32"><path d="M23.338 0H8.662C3.886 0 0 3.886 0 8.662v14.676C0 28.114 3.886 32 8.662 32h14.676C28.114 32 32 28.114 32 23.338V8.662C32 3.886 28.114 0 23.338 0zm6.786 23.338a6.793 6.793 0 0 1-6.786 6.786H8.662a6.793 6.793 0 0 1-6.786-6.786V8.662a6.793 6.793 0 0 1 6.786-6.786h14.676a6.793 6.793 0 0 1 6.786 6.786v14.676z"/><path d="M16 7.25c-4.825 0-8.75 3.925-8.75 8.75s3.925 8.75 8.75 8.75 8.75-3.925 8.75-8.75S20.825 7.25 16 7.25zm0 15.623c-3.79 0-6.874-3.084-6.874-6.874S12.21 9.125 16 9.125c3.79 0 6.874 3.084 6.874 6.874S19.79 22.873 16 22.873zM24.96 4.142c-1.426 0-2.585 1.16-2.585 2.585s1.16 2.586 2.585 2.586 2.586-1.16 2.586-2.586a2.588 2.588 0 0 0-2.586-2.585zm0 3.295a.71.71 0 1 1 .001-1.42.71.71 0 0 1-.001 1.42z"/></symbol><symbol id="icon-logo" viewBox="0 0 91 32"><path fill="#fff" d="M3.387 28.068c.309 0 .582.058.817.174s.418.279.55.489c.131.207.197.449.197.726 0 .274-.066.516-.197.726-.131.207-.314.37-.55.489a1.826 1.826 0 0 1-.817.174H2.195V28.07h1.192zm-.843 2.684-.223-.215h1.081c.238 0 .446-.046.624-.137s.317-.218.416-.381c.101-.163.152-.35.152-.563 0-.217-.051-.406-.152-.566-.099-.163-.238-.29-.416-.381s-.386-.137-.624-.137H2.321l.223-.211v2.591zm10.357-1.444v.296h-1.898v-.296h1.898zm-1.678.148-.212 1.303-.186-.218h2.176v.304h-2.347l.23-1.388-.23-1.388h2.328v.303h-2.158l.186-.218.212 1.303zm8.911 1.251h-.182l1.266-2.639h.379l-1.37 2.776h-.379l-1.37-2.776h.379l1.277 2.639zm9.299-1.399v.296h-1.898v-.296h1.898zm-1.678.148-.212 1.303-.186-.218h2.176v.304h-2.347l.23-1.388-.23-1.388h2.328v.303h-2.158l.186-.218.212 1.303zm7.98-1.388v2.621l-.156-.152h2.106v.307h-2.299v-2.776h.349zm8.853 2.824c-.309 0-.583-.06-.821-.181a1.366 1.366 0 0 1-.55-.503 1.427 1.427 0 0 1-.197-.752c0-.286.066-.537.197-.751s.315-.382.55-.503c.238-.121.511-.181.821-.181s.582.061.817.181c.235.121.418.289.55.503s.197.465.197.751c0 .284-.066.534-.197.752-.131.215-.315.382-.55.503s-.508.181-.817.181zm0-.314c.245 0 .458-.046.639-.137.181-.094.321-.224.42-.392s.149-.365.149-.592c0-.23-.05-.428-.149-.596a1 1 0 0 0-.42-.389c-.181-.091-.394-.137-.639-.137s-.458.046-.639.137a1.014 1.014 0 0 0-.423.389 1.15 1.15 0 0 0-.148.596c0 .227.05.424.148.592.102.168.243.299.423.392.181.091.394.137.639.137zm8.818-2.51c.196 0 .365.035.509.104s.255.167.334.292c.079.123.119.267.119.429s-.04.307-.119.433a.822.822 0 0 1-.334.292 1.165 1.165 0 0 1-.509.104h-1.27v-.303h1.263c.188 0 .337-.047.446-.141.111-.096.167-.224.167-.385s-.056-.288-.167-.381c-.109-.094-.258-.141-.446-.141h-1.225l.156-.17v2.643h-.349v-2.776h1.426zm10.286 0v2.776h-.334v-2.695l.137.004-1.407 2.691h-.371l-1.407-2.687.137-.004v2.691h-.334v-2.776h.527l1.374 2.658h-.219l1.37-2.658h.527zm8.135 1.24v.296h-1.898v-.296h1.898zm-1.679.148-.212 1.303-.186-.218h2.176v.304h-2.347l.23-1.388-.23-1.388h2.328v.303h-2.158l.186-.218.212 1.303zm10.201 1.214-.171.011v-2.613h.338v2.776h-.449l-2.121-2.613.171-.011v2.624h-.338v-2.776h.453l2.117 2.602zm7.063-2.435h.349v2.61h-.349v-2.61zm-1.196-.167h2.741v.307h-2.741v-.307zM3.155 5.04v14.909l-.516-.514h11.739v1.028H1.999V5.04h1.155zM33.06 20.463h1.341L26.561 5.04l-.567 1.285 4.497 8.997h-9.022l2.566-5.089-1.186-.154-5.313 10.385h1.341l2.073-4.113h10.055l2.056 4.113zM37.97 20.463v-1.028L50.802 5.328l.309.74H38.072V5.04h13.534v1.028L38.794 20.175l-.33-.74h13.204v1.028H37.969zM70.87 20.463h1.341L64.371 5.04l-.567 1.285 4.497 8.997h-9.022l2.566-5.089-1.186-.154-5.313 10.385h1.341l2.073-4.113h10.055l2.056 4.113zM77.905 12.649h6.973c1.142 0 2.056-.295 2.744-.884.688-.603 1.032-1.405 1.032-2.406s-.344-1.796-1.032-2.385c-.688-.603-1.602-.905-2.744-.905H77.74l.516-.514v14.909h-1.155V5.041h7.675c1.004 0 1.877.185 2.62.555.756.356 1.348.864 1.774 1.522.426.644.64 1.392.64 2.241s-.213 1.604-.64 2.262c-.426.644-1.018 1.152-1.774 1.522-.743.356-1.616.535-2.62.535h-6.87V12.65zm3.796.596h1.568l6.788 7.218h-1.568l-6.788-7.218z"/></symbol><symbol id="icon-barcelona-logo" viewBox="0 0 121 32"><path fill="#fff" style="fill:var(--color1,#fff)" d="M16.741 25.599c.429-.144.94-.315 1.305-.469.365-.152.859-.396 1.078-.525s.273-.121.149-.252c-.124-.131.107-.117-.355-.048s-1.72.265-2.327.366c-1.001-.22-1.927-.436-2.931-.476-.802-.567-1.579-.902-2.393-1.529-.455-.351-.931-1.032-1.347-1.487.015-.132 0-.286.09-.391.431-.493.899-.961 1.343-1.447.335.236.725.486.978.8s.495.826.635 1.121.063.414.165.638c.101.222.227.321.356.511.221-.1.419-.225.614-.37 0-.208-.004-.418-.013-.626-.2-.26-.404-.505-.564-.795-.07-.127-.103-.28-.153-.417.355.213.67.469.998.722.144.111.325.091.498.09l.274-.508-.313-.397a9.777 9.777 0 0 1-1.008-.465c-.017-.01-.011-.045.007-.045.304 0 .607.007.908.034.056.006.103.066.161.066.189 0 .381-.023.572-.024.011-.179.025-.355.035-.535-.187-.039-.37-.127-.553-.156s-.132.052-.377.023c-.245-.03-.788-.059-1.087-.094-.087-.01-.173-.096-.225-.152-.259-.28-.481-.587-.746-.86a44.413 44.413 0 0 0-2.127-.149c-.535.346-1.087.663-1.639.983-.13-1.976-.063-1.311-.107-2.834.542-2.136.714-3.065 1.16-4.534.075.073.082.206.158.274.401.367.829.704 1.257 1.05.5-.052 1.175-.106 1.63-.163.456-.058.684-.124 1.098-.189.274.053.624.089.89.152s.424.203.667.283c.187.062.404.056.597.113.065-.165.139-.318.21-.48-.125-.149-.267-.296-.46-.352-.346-.101-.9-.182-1.191-.238-.291-.058-.289-.086-.524-.145.397-.076.78-.152 1.174-.186.094-.008.197.066.287.051.208-.034.4-.111.601-.172a16.99 16.99 0 0 0-.094-.628c-.215.003-.431-.076-.65-.046-.263.035-.66.21-.887.262-.225.052-.269.034-.46.069.382-.273.767-.515 1.167-.755.096-.21.189-.421.286-.629-.168-.17-.332-.339-.5-.512-.131.166-.307.3-.428.472-.068.097-.065.225-.163.306-.472.386-.936.76-1.422 1.135-.118.091-.283.169-.412.253-.146-.814-.187-1.468-.284-2.265a9.636 9.636 0 0 0-.662-.586c.294-.236 1.905-1.536 2.803-1.8.459.21.898.462 1.342.701.255.004.476.03.75-.003.705-.441 2.002-1.146 2.6-1.465.6-.318.484-.273.946-.525-.19-.731-.353-1.474-.622-2.188-1.101-.443-2.197-.898-3.331-1.254-.488.03-.977.048-1.465.091a51.884 51.884 0 0 1-1.053 1.298c-1.364.935-1.746 1.05-3.098 1.895-.94.222-1.28.246-2.393.376-.85-.246-1.416-.669-2.068-1.206-.039-.201-.08-.401-.104-.605.206-.262.408-.525.612-.791.194-.077.459-.134.65-.16s.31.014.484-.025c.175-.039.322-.148.486-.22l-.004-.518-.488-.122a16.07 16.07 0 0 1-1.16.303c.287-.229.587-.439.893-.642.082-.142.165-.284.246-.428a66.464 66.464 0 0 1-.335-.373c-.146.097-.353.113-.488.228-.218.187-.388.443-.608.632.09-.338.269-.653.377-.983.051-.155-.027-.336.003-.495-.163-.1-.305-.159-.495-.158-.077.145-.198.259-.262.41s.006.255-.068.42C5.339 1.974 4.643 3.049 4.19 4.222c.246.65.486 1.27.719 1.933.125.355.384.698.577 1.03-.272.37-.562.726-.825 1.104-.673 2.525-1.033 4.429-1.498 7.419.218.985.383 1.976.531 2.975-.183.014-.367.021-.55.041-.532.542-.977 1.083-1.343 1.758-.039.073.017.252.011.332-.023.329-.18.709-.369.932s-.401.343-.586.487c-.184.144-.329.144-.493.263-.165.12-.255.258-.362.424.107.156.21.311.314.469.213-.02.38-.021.545-.183s.345-.394.519-.541c.175-.148.332-.241.504-.374-.153.373-.379.717-.545 1.08-.076.168-.044.37-.103.543.184.083.36.163.543.244.144-.114.31-.221.358-.408.101-.4.2-.781.366-1.159.044.421.066.839.065 1.263.11.153.19.315.259.49.222.032.401-.024.604-.121-.008-.182.08-.379.049-.557-.023-.132-.145-.26-.169-.398-.052-.313-.125-.622-.148-.935-.041-.564-.004-1.109.049-1.668.525.141 1.052.283 1.579.413.048.056.075.101.127.159.718.805 1.52 1.541 2.273 2.316 2.052 1.09 4.106 1.969 6.309 2.765.465-.114 1.609-.315 1.933-.355s.238-.025.311-.046c.379-.113.683-.21.997-.315v.007zM29.009 17.295c0 2.285-1.686 3.844-4.098 3.844h-4.824v-7.526h4.479c1.251 0 1.905-.798 1.905-1.741s-.49-1.705-1.632-1.705h-4.751V8.444h4.751c2.23 0 3.428 1.578 3.428 3.428 0 .98-.526 1.778-1.251 2.358 1.197.527 1.995 1.578 1.995 3.065h-.001zm-1.776 0c0-1.251-.835-2.05-2.321-2.05h-3.101v4.171h3.101c1.468 0 2.321-.852 2.321-2.121zM40.632 21.139h-1.905l-3.5-10.1-3.5 10.1h-1.905l4.551-12.695h1.686l4.571 12.695zM46.906 16.623h-2.993v4.516h-1.741v-6.238h4.751c1.523 0 2.376-1.125 2.376-2.358s-.852-2.376-2.376-2.376h-4.751V8.444h4.751c2.575 0 4.153 1.831 4.153 4.098 0 1.668-.87 3.101-2.375 3.736l2.738 4.859h-1.976l-2.557-4.515zM62.338 17.513l1.596.798c-1.07 1.778-2.956 2.956-5.241 2.956-3.573 0-6.166-2.883-6.166-6.456s2.593-6.474 6.166-6.474c2.285 0 4.171 1.178 5.241 2.974l-1.596.78c-.743-1.215-2.031-2.013-3.645-2.013-2.63 0-4.389 2.103-4.389 4.733s1.76 4.733 4.389 4.733c1.613 0 2.901-.798 3.645-2.031zM74.053 10.167h-8.324V8.444h8.324v1.723zm-.562 5.459h-7.762V13.94h7.762v1.686zm.671 3.773v1.741H65.73v-1.741h8.432zM77.878 12.893V8.446h-1.742V19.58l1.742-1.723v-4.964zM79.004 19.398l-1.76 1.741h6.529v-1.741h-4.769zM96.812 14.81c0 3.573-2.575 6.456-6.166 6.456s-6.147-2.901-6.147-6.474c0-3.573 2.575-6.456 6.147-6.456s6.166 2.883 6.166 6.474zm-1.777 0c0-2.63-1.76-4.751-4.388-4.751s-4.371 2.103-4.371 4.733c0 2.63 1.76 4.751 4.371 4.751s4.388-2.121 4.388-4.733zm-3.283 0c0 .598-.49 1.088-1.106 1.088s-1.088-.49-1.088-1.088c0-.598.49-1.106 1.088-1.106s1.106.49 1.106 1.106zM108.327 8.446v12.821h-.163l-7.725-8.469v8.342h-1.723V8.337h.145l7.725 8.541V8.446h1.742zM120.674 21.139h-1.905l-3.5-10.1-3.5 10.1h-1.905l4.551-12.695h1.687l4.571 12.695zM40.136 31.02l.255.169a1.973 1.973 0 0 1-1.547.746c-1.13 0-1.999-.921-1.999-2.051s.87-2.045 1.999-2.045c.632 0 1.187.289 1.547.746l-.255.163a1.653 1.653 0 0 0-1.294-.61c-.966 0-1.695.785-1.695 1.746s.729 1.746 1.695 1.746c.53 0 .988-.237 1.294-.61zM43.218 31.563v.3h-2.181v-3.954h2.13v.305h-1.83v1.451h1.701v.3h-1.701v1.599l1.881-.001zM46.956 27.908v3.954h-.3l-2.406-3.44v3.44h-.3v-3.954h.3l2.406 3.44v-3.44h.3zM50.153 28.214h-1.084v3.649h-.3v-3.649h-1.078v-.305h2.462v.305zM53.253 31.862l-1.033-1.667a2.84 2.84 0 0 1-.231.011h-.802v1.655h-.3v-3.954h1.101c.864 0 1.384.424 1.384 1.153 0 .553-.306.932-.836 1.078l1.067 1.723h-.349zm-1.265-1.953c.694 0 1.084-.289 1.084-.847s-.39-.847-1.084-.847h-.803v1.695h.803zM56.478 30.756h-1.802l-.413 1.106h-.322l1.474-3.954h.322l1.474 3.954h-.322l-.413-1.106h.002zm-.113-.306-.786-2.107-.791 2.107h1.577zM59.974 31.563v.3h-2.141v-3.954h.305v3.654h1.836zM64.83 29.134c0 .729-.497 1.226-1.361 1.226h-.876v1.502h-.305v-3.954h1.181c.864 0 1.361.497 1.361 1.226zm-.306 0c0-.559-.362-.921-1.056-.921h-.876v1.841h.876c.696 0 1.056-.362 1.056-.921zM67.422 30.756H65.62l-.413 1.106h-.322l1.474-3.954h.322l1.474 3.954h-.322l-.413-1.106h.001zm-.113-.306-.785-2.107-.791 2.107h1.576zM71.143 31.862l-1.033-1.667a2.84 2.84 0 0 1-.231.011h-.803v1.655h-.3v-3.954h1.102c.864 0 1.384.424 1.384 1.153 0 .553-.306.932-.836 1.078l1.067 1.723h-.351zm-1.265-1.953c.694 0 1.084-.289 1.084-.847s-.39-.847-1.084-.847h-.802v1.695h.802zM74.277 31.862l-1.858-1.931v1.931h-.305v-3.954h.305v1.898l1.718-1.898h.401l-1.762 1.954 1.926 1.999h-.424v.001zM79.81 27.908v3.954h-.305v-1.841h-2.299v1.841h-.305v-3.954h.305v1.808h2.299v-1.808h.305zM84.537 29.886c0 1.13-.87 2.051-1.999 2.051s-1.993-.921-1.993-2.051.864-2.045 1.993-2.045 1.999.915 1.999 2.045zm-.3 0c0-.96-.735-1.746-1.7-1.746s-1.695.785-1.695 1.746.735 1.746 1.695 1.746c.96 0 1.7-.78 1.7-1.746zM88.072 27.908v2.48c0 .932-.542 1.547-1.401 1.547s-1.401-.615-1.401-1.547v-2.48h.3v2.48c0 .763.407 1.243 1.101 1.243s1.095-.48 1.095-1.243v-2.48h.305zM91.36 30.801c0 .525-.373 1.136-1.288 1.136-.712 0-1.192-.452-1.322-.904l.289-.09c.09.322.441.688 1.033.688s.982-.322.982-.831c0-.474-.373-.615-.943-.769-.525-.141-1.204-.339-1.204-1.09 0-.643.525-1.101 1.135-1.101.553 0 .972.294 1.142.825l-.294.073c-.13-.401-.424-.598-.847-.598-.446 0-.83.322-.83.802s.379.638.977.797c.536.146 1.17.334 1.17 1.061l.002-.001zM94.218 31.563v.3h-2.18v-3.954h2.13v.305h-1.83v1.451h1.701v.3h-1.701v1.599l1.881-.001z"/></symbol></defs></svg>