<svg aria-hidden="true" style="position: absolute; width: 0; height: 0; overflow: hidden;" version="1.1" xmlns="http://www.w3.org/2000/svg" xmlns:xlink="http://www.w3.org/1999/xlink">
<defs>
<symbol id="icon-arrow" viewBox="0 0 31 32">
<path  d="M22.374 23.046v-13.489c0-0.111-0.022-0.22-0.064-0.322s-0.104-0.195-0.182-0.273c-0.078-0.078-0.171-0.14-0.273-0.182s-0.212-0.064-0.322-0.064h-13.489l0 1.683h11.457l-12.053 12.053 1.19 1.19 12.053-12.053 0 11.457h1.683z"></path>
</symbol>
<symbol id="icon-arrow-2" viewBox="0 0 32 32">
<path fill="#fff" style="fill: var(--color1, #fff)" d="M31.2 9.56l-14.308 14.307c-0.117 0.117-0.256 0.21-0.409 0.274s-0.317 0.096-0.483 0.096c-0.166 0-0.33-0.033-0.483-0.096s-0.292-0.156-0.409-0.274l-14.308-14.307 1.785-1.785 13.415 13.415 13.415-13.415 1.785 1.785z"></path>
</symbol>
<symbol id="icon-burger" viewBox="0 0 51 32">
<path fill="none" stroke="#fff" style="stroke: var(--color1, #fff)" stroke-linejoin="miter" stroke-linecap="round" stroke-miterlimit="4" stroke-width="1.8824" d="M1.882 1.882h47.059"></path>
<path fill="none" stroke="#fff" style="stroke: var(--color1, #fff)" stroke-linejoin="miter" stroke-linecap="round" stroke-miterlimit="4" stroke-width="1.8824" d="M1.882 16h47.059"></path>
<path fill="none" stroke="#fff" style="stroke: var(--color1, #fff)" stroke-linejoin="miter" stroke-linecap="round" stroke-miterlimit="4" stroke-width="1.8824" d="M1.882 30.118h47.059"></path>
</symbol>
<symbol id="icon-facebook" viewBox="0 0 32 32">
<path d="M27.313 0h-22.625c-2.585 0-4.688 2.103-4.688 4.688v22.625c0 2.585 2.103 4.687 4.688 4.687h22.625c2.585 0 4.687-2.103 4.687-4.687v-22.625c0-2.585-2.103-4.688-4.687-4.688zM18.812 19.687v10.438h-1.875v-10.438c0-0.518-0.42-0.938-0.938-0.938h-2.812v-1.875h2.812c0.518 0 0.938-0.42 0.938-0.938v-3.75c0-2.585 2.103-4.688 4.687-4.688h2.813v1.875h-2.813c-1.551 0-2.812 1.262-2.812 2.813v3.75c0 0.518 0.42 0.938 0.938 0.938h4.424l-0.469 1.875h-3.956c-0.518 0-0.938 0.42-0.938 0.938zM30.125 27.313c0 1.551-1.262 2.812-2.812 2.812h-6.625v-9.5h3.75c0.43 0 0.805-0.293 0.909-0.71l0.938-3.75c0.148-0.592-0.301-1.165-0.909-1.165h-4.688v-2.812c0-0.517 0.421-0.938 0.938-0.938h3.75c0.518 0 0.938-0.42 0.938-0.938v-3.75c0-0.518-0.42-0.938-0.938-0.938h-3.75c-3.619 0-6.562 2.944-6.562 6.563v2.812h-2.812c-0.518 0-0.938 0.42-0.938 0.938v3.75c0 0.518 0.42 0.931 0.938 0.931h2.812v9.506h-10.375c-1.551 0-2.813-1.262-2.813-2.812v-22.625c0-1.551 1.262-2.813 2.813-2.813h22.625c1.551 0 2.812 1.262 2.812 2.813v22.625z"></path>
</symbol>
<symbol id="icon-instagram" viewBox="0 0 32 32">
<path d="M23.338 0h-14.676c-4.776 0-8.662 3.886-8.662 8.662v14.676c0 4.776 3.886 8.662 8.662 8.662h14.676c4.776 0 8.662-3.886 8.662-8.662v-14.676c0-4.776-3.886-8.662-8.662-8.662zM30.124 23.338c0 3.742-3.044 6.786-6.786 6.786h-14.676c-3.742 0-6.786-3.044-6.786-6.786v-14.676c0-3.742 3.044-6.786 6.786-6.786h14.676c3.742 0 6.786 3.044 6.786 6.786v14.676z"></path>
<path d="M16 7.25c-4.825 0-8.75 3.925-8.75 8.75s3.925 8.75 8.75 8.75c4.825 0 8.75-3.925 8.75-8.75s-3.925-8.75-8.75-8.75zM16 22.873c-3.79 0-6.874-3.084-6.874-6.874s3.084-6.874 6.874-6.874c3.79 0 6.874 3.084 6.874 6.874s-3.084 6.874-6.874 6.874z"></path>
<path d="M24.96 4.142c-1.426 0-2.585 1.16-2.585 2.585s1.16 2.586 2.585 2.586 2.586-1.16 2.586-2.586c0-1.426-1.16-2.585-2.586-2.585zM24.96 7.437c-0.391 0-0.709-0.318-0.709-0.709s0.318-0.709 0.709-0.709c0.391 0 0.71 0.318 0.71 0.709s-0.318 0.709-0.71 0.709z"></path>
</symbol>
<symbol id="icon-logo" viewBox="0 0 91 32">
<path fill="#fff" d="M3.387 28.068c0.309 0 0.582 0.058 0.817 0.174s0.418 0.279 0.55 0.489c0.131 0.207 0.197 0.449 0.197 0.726 0 0.274-0.066 0.516-0.197 0.726-0.131 0.207-0.314 0.37-0.55 0.489-0.235 0.116-0.508 0.174-0.817 0.174h-1.192v-2.776h1.192zM2.544 30.752l-0.223-0.215h1.081c0.238 0 0.446-0.046 0.624-0.137s0.317-0.218 0.416-0.381c0.101-0.163 0.152-0.35 0.152-0.563 0-0.217-0.051-0.406-0.152-0.566-0.099-0.163-0.238-0.29-0.416-0.381s-0.386-0.137-0.624-0.137h-1.081l0.223-0.211v2.591zM12.901 29.308v0.296h-1.898v-0.296h1.898zM11.223 29.456l-0.212 1.303-0.186-0.218h2.176v0.304h-2.347l0.23-1.388-0.23-1.388h2.328v0.303h-2.158l0.186-0.218 0.212 1.303zM20.134 30.707h-0.182l1.266-2.639h0.379l-1.37 2.776h-0.379l-1.37-2.776h0.379l1.277 2.639zM29.433 29.308v0.296h-1.898v-0.296h1.898zM27.755 29.456l-0.212 1.303-0.186-0.218h2.176v0.304h-2.347l0.23-1.388-0.23-1.388h2.328v0.303h-2.158l0.186-0.218 0.212 1.303zM35.735 28.068v2.621l-0.156-0.152h2.106v0.307h-2.299v-2.776h0.349zM44.588 30.892c-0.309 0-0.583-0.060-0.821-0.181-0.235-0.121-0.418-0.289-0.55-0.503-0.131-0.217-0.197-0.468-0.197-0.752 0-0.286 0.066-0.537 0.197-0.751s0.315-0.382 0.55-0.503c0.238-0.121 0.511-0.181 0.821-0.181s0.582 0.061 0.817 0.181c0.235 0.121 0.418 0.289 0.55 0.503s0.197 0.465 0.197 0.751c0 0.284-0.066 0.534-0.197 0.752-0.131 0.215-0.315 0.382-0.55 0.503s-0.508 0.181-0.817 0.181zM44.588 30.578c0.245 0 0.458-0.046 0.639-0.137 0.181-0.094 0.321-0.224 0.42-0.392s0.149-0.365 0.149-0.592c0-0.23-0.050-0.428-0.149-0.596s-0.239-0.297-0.42-0.389c-0.181-0.091-0.394-0.137-0.639-0.137s-0.458 0.046-0.639 0.137c-0.181 0.091-0.322 0.221-0.423 0.389-0.099 0.168-0.148 0.366-0.148 0.596 0 0.227 0.050 0.424 0.148 0.592 0.102 0.168 0.243 0.299 0.423 0.392 0.181 0.091 0.394 0.137 0.639 0.137zM53.406 28.068c0.196 0 0.365 0.035 0.509 0.104s0.255 0.167 0.334 0.292c0.079 0.123 0.119 0.267 0.119 0.429s-0.040 0.307-0.119 0.433c-0.079 0.123-0.191 0.221-0.334 0.292-0.144 0.069-0.313 0.104-0.509 0.104h-1.27v-0.303h1.263c0.188 0 0.337-0.047 0.446-0.141 0.111-0.096 0.167-0.224 0.167-0.385s-0.056-0.288-0.167-0.381c-0.109-0.094-0.258-0.141-0.446-0.141h-1.225l0.156-0.17v2.643h-0.349v-2.776h1.426zM63.692 28.068v2.776h-0.334v-2.695l0.137 0.004-1.407 2.691h-0.371l-1.407-2.687 0.137-0.004v2.691h-0.334v-2.776h0.527l1.374 2.658h-0.219l1.37-2.658h0.527zM71.827 29.308v0.296h-1.898v-0.296h1.898zM70.148 29.456l-0.212 1.303-0.186-0.218h2.176v0.304h-2.347l0.23-1.388-0.23-1.388h2.328v0.303h-2.158l0.186-0.218 0.212 1.303zM80.349 30.67l-0.171 0.011v-2.613h0.338v2.776h-0.449l-2.121-2.613 0.171-0.011v2.624h-0.338v-2.776h0.453l2.117 2.602zM87.412 28.235h0.349v2.61h-0.349v-2.61zM86.216 28.068h2.741v0.307h-2.741v-0.307z"></path>
<path fill="#fff" d="M3.155 5.040v14.909l-0.516-0.514h11.739v1.028h-12.379v-15.423h1.155z"></path>
<path fill="#fff" d="M33.060 20.463h1.341l-7.84-15.423-0.567 1.285 4.497 8.997h-9.022l2.566-5.089-1.186-0.154-5.313 10.385h1.341l2.073-4.113h10.055l2.056 4.113z"></path>
<path fill="#fff" d="M37.97 20.463v-1.028l12.832-14.107 0.309 0.74h-13.039v-1.028h13.534v1.028l-12.812 14.107-0.33-0.74h13.204v1.028h-13.699z"></path>
<path fill="#fff" d="M70.87 20.463h1.341l-7.84-15.423-0.567 1.285 4.497 8.997h-9.022l2.566-5.089-1.186-0.154-5.313 10.385h1.341l2.073-4.113h10.055l2.056 4.113z"></path>
<path fill="#fff" d="M77.905 12.649h6.973c1.142 0 2.056-0.295 2.744-0.884 0.688-0.603 1.032-1.405 1.032-2.406s-0.344-1.796-1.032-2.385c-0.688-0.603-1.602-0.905-2.744-0.905h-7.138l0.516-0.514v14.909h-1.155v-15.423h7.675c1.004 0 1.877 0.185 2.62 0.555 0.756 0.356 1.348 0.864 1.774 1.522 0.426 0.644 0.64 1.392 0.64 2.241s-0.213 1.604-0.64 2.262c-0.426 0.644-1.018 1.152-1.774 1.522-0.743 0.356-1.616 0.535-2.62 0.535h-6.87v-1.028zM81.701 13.245h1.568l6.788 7.218h-1.568l-6.788-7.218z"></path>
</symbol>

<symbol id="icon-barcelona-logo" viewBox="0 0 121 32">
<path fill="#fff" style="fill: var(--color1, #fff)" d="M16.741 25.599c0.429-0.144 0.94-0.315 1.305-0.469 0.365-0.152 0.859-0.396 1.078-0.525s0.273-0.121 0.149-0.252c-0.124-0.131 0.107-0.117-0.355-0.048s-1.72 0.265-2.327 0.366c-1.001-0.22-1.927-0.436-2.931-0.476-0.802-0.567-1.579-0.902-2.393-1.529-0.455-0.351-0.931-1.032-1.347-1.487 0.015-0.132 0-0.286 0.090-0.391 0.431-0.493 0.899-0.961 1.343-1.447 0.335 0.236 0.725 0.486 0.978 0.8s0.495 0.826 0.635 1.121 0.063 0.414 0.165 0.638c0.101 0.222 0.227 0.321 0.356 0.511 0.221-0.1 0.419-0.225 0.614-0.37 0-0.208-0.004-0.418-0.013-0.626-0.2-0.26-0.404-0.505-0.564-0.795-0.070-0.127-0.103-0.28-0.153-0.417 0.355 0.213 0.67 0.469 0.998 0.722 0.144 0.111 0.325 0.091 0.498 0.090 0.091-0.17 0.182-0.339 0.274-0.508-0.104-0.132-0.208-0.265-0.313-0.397-0.343-0.141-0.683-0.286-1.008-0.465-0.017-0.010-0.011-0.045 0.007-0.045 0.304 0 0.607 0.007 0.908 0.034 0.056 0.006 0.103 0.066 0.161 0.066 0.189 0 0.381-0.023 0.572-0.024 0.011-0.179 0.025-0.355 0.035-0.535-0.187-0.039-0.37-0.127-0.553-0.156s-0.132 0.052-0.377 0.023c-0.245-0.030-0.788-0.059-1.087-0.094-0.087-0.010-0.173-0.096-0.225-0.152-0.259-0.28-0.481-0.587-0.746-0.86-0.708-0.063-1.416-0.12-2.127-0.149-0.535 0.346-1.087 0.663-1.639 0.983-0.13-1.976-0.063-1.311-0.107-2.834 0.542-2.136 0.714-3.065 1.16-4.534 0.075 0.073 0.082 0.206 0.158 0.274 0.401 0.367 0.829 0.704 1.257 1.050 0.5-0.052 1.175-0.106 1.63-0.163 0.456-0.058 0.684-0.124 1.098-0.189 0.274 0.053 0.624 0.089 0.89 0.152s0.424 0.203 0.667 0.283c0.187 0.062 0.404 0.056 0.597 0.113 0.065-0.165 0.139-0.318 0.21-0.48-0.125-0.149-0.267-0.296-0.46-0.352-0.346-0.101-0.9-0.182-1.191-0.238-0.291-0.058-0.289-0.086-0.524-0.145 0.397-0.076 0.78-0.152 1.174-0.186 0.094-0.008 0.197 0.066 0.287 0.051 0.208-0.034 0.4-0.111 0.601-0.172-0.028-0.213-0.058-0.415-0.094-0.628-0.215 0.003-0.431-0.076-0.65-0.046-0.263 0.035-0.66 0.21-0.887 0.262-0.225 0.052-0.269 0.034-0.46 0.069 0.382-0.273 0.767-0.515 1.167-0.755 0.096-0.21 0.189-0.421 0.286-0.629-0.168-0.17-0.332-0.339-0.5-0.512-0.131 0.166-0.307 0.3-0.428 0.472-0.068 0.097-0.065 0.225-0.163 0.306-0.472 0.386-0.936 0.76-1.422 1.135-0.118 0.091-0.283 0.169-0.412 0.253-0.146-0.814-0.187-1.468-0.284-2.265-0.343-0.324-0.427-0.393-0.662-0.586 0.294-0.236 1.905-1.536 2.803-1.8 0.459 0.21 0.898 0.462 1.342 0.701 0.255 0.004 0.476 0.030 0.75-0.003 0.705-0.441 2.002-1.146 2.6-1.465 0.6-0.318 0.484-0.273 0.946-0.525-0.19-0.731-0.353-1.474-0.622-2.188-1.101-0.443-2.197-0.898-3.331-1.254-0.488 0.030-0.977 0.048-1.465 0.091-0.222 0.282-0.816 1.026-1.053 1.298-1.364 0.935-1.746 1.050-3.098 1.895-0.94 0.222-1.28 0.246-2.393 0.376-0.85-0.246-1.416-0.669-2.068-1.206-0.039-0.201-0.080-0.401-0.104-0.605 0.206-0.262 0.408-0.525 0.612-0.791 0.194-0.077 0.459-0.134 0.65-0.16s0.31 0.014 0.484-0.025c0.175-0.039 0.322-0.148 0.486-0.22-0.001-0.173-0.003-0.346-0.004-0.518-0.163-0.041-0.327-0.082-0.488-0.122-0.384 0.114-0.769 0.218-1.16 0.303 0.287-0.229 0.587-0.439 0.893-0.642 0.082-0.142 0.165-0.284 0.246-0.428-0.113-0.125-0.221-0.245-0.335-0.373-0.146 0.097-0.353 0.113-0.488 0.228-0.218 0.187-0.388 0.443-0.608 0.632 0.090-0.338 0.269-0.653 0.377-0.983 0.051-0.155-0.027-0.336 0.003-0.495-0.163-0.1-0.305-0.159-0.495-0.158-0.077 0.145-0.198 0.259-0.262 0.41s0.006 0.255-0.068 0.42c-0.498 1.139-1.194 2.214-1.647 3.387 0.246 0.65 0.486 1.27 0.719 1.933 0.125 0.355 0.384 0.698 0.577 1.030-0.272 0.37-0.562 0.726-0.825 1.104-0.673 2.525-1.033 4.429-1.498 7.419 0.218 0.985 0.383 1.976 0.531 2.975-0.183 0.014-0.367 0.021-0.55 0.041-0.532 0.542-0.977 1.083-1.343 1.758-0.039 0.073 0.017 0.252 0.011 0.332-0.023 0.329-0.18 0.709-0.369 0.932s-0.401 0.343-0.586 0.487c-0.184 0.144-0.329 0.144-0.493 0.263-0.165 0.12-0.255 0.258-0.362 0.424 0.107 0.156 0.21 0.311 0.314 0.469 0.213-0.020 0.38-0.021 0.545-0.183s0.345-0.394 0.519-0.541c0.175-0.148 0.332-0.241 0.504-0.374-0.153 0.373-0.379 0.717-0.545 1.080-0.076 0.168-0.044 0.37-0.103 0.543 0.184 0.083 0.36 0.163 0.543 0.244 0.144-0.114 0.31-0.221 0.358-0.408 0.101-0.4 0.2-0.781 0.366-1.159 0.044 0.421 0.066 0.839 0.065 1.263 0.11 0.153 0.19 0.315 0.259 0.49 0.222 0.032 0.401-0.024 0.604-0.121-0.008-0.182 0.080-0.379 0.049-0.557-0.023-0.132-0.145-0.26-0.169-0.398-0.052-0.313-0.125-0.622-0.148-0.935-0.041-0.564-0.004-1.109 0.049-1.668 0.525 0.141 1.052 0.283 1.579 0.413 0.048 0.056 0.075 0.101 0.127 0.159 0.718 0.805 1.52 1.541 2.273 2.316 2.052 1.090 4.106 1.969 6.309 2.765 0.465-0.114 1.609-0.315 1.933-0.355s0.238-0.025 0.311-0.046c0.379-0.113 0.683-0.21 0.997-0.315v0.007z"></path>
<path fill="#fff" style="fill: var(--color1, #fff)" d="M29.009 17.295c0 2.285-1.686 3.844-4.098 3.844h-4.824v-7.526h4.479c1.251 0 1.905-0.798 1.905-1.741s-0.49-1.705-1.632-1.705h-4.751v-1.723h4.751c2.23 0 3.428 1.578 3.428 3.428 0 0.98-0.526 1.778-1.251 2.358 1.197 0.527 1.995 1.578 1.995 3.065h-0.001zM27.233 17.295c0-1.251-0.835-2.050-2.321-2.050h-3.101v4.171h3.101c1.468 0 2.321-0.852 2.321-2.121z"></path>
<path fill="#fff" style="fill: var(--color1, #fff)" d="M40.632 21.139h-1.905l-3.5-10.1-3.5 10.1h-1.905l4.551-12.695h1.686l4.571 12.695z"></path>
<path fill="#fff" style="fill: var(--color1, #fff)" d="M46.906 16.623h-2.993v4.516h-1.741v-6.238h4.751c1.523 0 2.376-1.125 2.376-2.358s-0.852-2.376-2.376-2.376h-4.751v-1.723h4.751c2.575 0 4.153 1.831 4.153 4.098 0 1.668-0.87 3.101-2.375 3.736l2.738 4.859h-1.976l-2.557-4.515z"></path>
<path fill="#fff" style="fill: var(--color1, #fff)" d="M62.338 17.513l1.596 0.798c-1.070 1.778-2.956 2.956-5.241 2.956-3.573 0-6.166-2.883-6.166-6.456s2.593-6.474 6.166-6.474c2.285 0 4.171 1.178 5.241 2.974l-1.596 0.78c-0.743-1.215-2.031-2.013-3.645-2.013-2.63 0-4.389 2.103-4.389 4.733s1.76 4.733 4.389 4.733c1.613 0 2.901-0.798 3.645-2.031z"></path>
<path fill="#fff" style="fill: var(--color1, #fff)" d="M74.053 10.167h-8.324v-1.723h8.324v1.723zM73.491 15.626h-7.762v-1.686h7.762v1.686zM74.162 19.399v1.741h-8.432v-1.741h8.432z"></path>
<path fill="#fff" style="fill: var(--color1, #fff)" d="M77.878 12.893v-4.447h-1.742v11.134l1.742-1.723v-4.964z"></path>
<path fill="#fff" style="fill: var(--color1, #fff)" d="M79.004 19.398l-1.76 1.741h6.529v-1.741h-4.769z"></path>
<path fill="#fff" style="fill: var(--color1, #fff)" d="M96.812 14.81c0 3.573-2.575 6.456-6.166 6.456s-6.147-2.901-6.147-6.474c0-3.573 2.575-6.456 6.147-6.456s6.166 2.883 6.166 6.474zM95.035 14.81c0-2.63-1.76-4.751-4.388-4.751s-4.371 2.103-4.371 4.733c0 2.63 1.76 4.751 4.371 4.751s4.388-2.121 4.388-4.733zM91.752 14.81c0 0.598-0.49 1.088-1.106 1.088s-1.088-0.49-1.088-1.088c0-0.598 0.49-1.106 1.088-1.106s1.106 0.49 1.106 1.106z"></path>
<path fill="#fff" style="fill: var(--color1, #fff)" d="M108.327 8.446v12.821h-0.163l-7.725-8.469v8.342h-1.723v-12.803h0.145l7.725 8.541v-8.432h1.742z"></path>
<path fill="#fff" style="fill: var(--color1, #fff)" d="M120.674 21.139h-1.905l-3.5-10.1-3.5 10.1h-1.905l4.551-12.695h1.687l4.571 12.695z"></path>
<path fill="#fff" style="fill: var(--color1, #fff)" d="M40.136 31.020l0.255 0.169c-0.362 0.452-0.915 0.746-1.547 0.746-1.13 0-1.999-0.921-1.999-2.051s0.87-2.045 1.999-2.045c0.632 0 1.187 0.289 1.547 0.746l-0.255 0.163c-0.305-0.373-0.763-0.61-1.294-0.61-0.966 0-1.695 0.785-1.695 1.746s0.729 1.746 1.695 1.746c0.53 0 0.988-0.237 1.294-0.61z"></path>
<path fill="#fff" style="fill: var(--color1, #fff)" d="M43.218 31.563v0.3h-2.181v-3.954h2.13v0.305h-1.83v1.451h1.701v0.3h-1.701v1.599l1.881-0.001z"></path>
<path fill="#fff" style="fill: var(--color1, #fff)" d="M46.956 27.908v3.954h-0.3l-2.406-3.44v3.44h-0.3v-3.954h0.3l2.406 3.44v-3.44h0.3z"></path>
<path fill="#fff" style="fill: var(--color1, #fff)" d="M50.153 28.214h-1.084v3.649h-0.3v-3.649h-1.078v-0.305h2.462v0.305z"></path>
<path fill="#fff" style="fill: var(--color1, #fff)" d="M53.253 31.862l-1.033-1.667c-0.073 0.006-0.152 0.011-0.231 0.011h-0.802v1.655h-0.3v-3.954h1.101c0.864 0 1.384 0.424 1.384 1.153 0 0.553-0.306 0.932-0.836 1.078l1.067 1.723h-0.349zM51.988 29.909c0.694 0 1.084-0.289 1.084-0.847s-0.39-0.847-1.084-0.847h-0.803v1.695h0.803z"></path>
<path fill="#fff" style="fill: var(--color1, #fff)" d="M56.478 30.756h-1.802l-0.413 1.106h-0.322l1.474-3.954h0.322l1.474 3.954h-0.322l-0.413-1.106h0.002zM56.365 30.45l-0.786-2.107-0.791 2.107h1.577z"></path>
<path fill="#fff" style="fill: var(--color1, #fff)" d="M59.974 31.563v0.3h-2.141v-3.954h0.305v3.654h1.836z"></path>
<path fill="#fff" style="fill: var(--color1, #fff)" d="M64.83 29.134c0 0.729-0.497 1.226-1.361 1.226h-0.876v1.502h-0.305v-3.954h1.181c0.864 0 1.361 0.497 1.361 1.226zM64.524 29.134c0-0.559-0.362-0.921-1.056-0.921h-0.876v1.841h0.876c0.696 0 1.056-0.362 1.056-0.921z"></path>
<path fill="#fff" style="fill: var(--color1, #fff)" d="M67.422 30.756h-1.802l-0.413 1.106h-0.322l1.474-3.954h0.322l1.474 3.954h-0.322l-0.413-1.106h0.001zM67.309 30.45l-0.785-2.107-0.791 2.107h1.576z"></path>
<path fill="#fff" style="fill: var(--color1, #fff)" d="M71.143 31.862l-1.033-1.667c-0.073 0.006-0.152 0.011-0.231 0.011h-0.803v1.655h-0.3v-3.954h1.102c0.864 0 1.384 0.424 1.384 1.153 0 0.553-0.306 0.932-0.836 1.078l1.067 1.723h-0.351zM69.878 29.909c0.694 0 1.084-0.289 1.084-0.847s-0.39-0.847-1.084-0.847h-0.802v1.695h0.802z"></path>
<path fill="#fff" style="fill: var(--color1, #fff)" d="M74.277 31.862l-1.858-1.931v1.931h-0.305v-3.954h0.305v1.898l1.718-1.898h0.401l-1.762 1.954 1.926 1.999h-0.424v0.001z"></path>
<path fill="#fff" style="fill: var(--color1, #fff)" d="M79.81 27.908v3.954h-0.305v-1.841h-2.299v1.841h-0.305v-3.954h0.305v1.808h2.299v-1.808h0.305z"></path>
<path fill="#fff" style="fill: var(--color1, #fff)" d="M84.537 29.886c0 1.13-0.87 2.051-1.999 2.051s-1.993-0.921-1.993-2.051 0.864-2.045 1.993-2.045c1.129 0 1.999 0.915 1.999 2.045zM84.237 29.886c0-0.96-0.735-1.746-1.7-1.746s-1.695 0.785-1.695 1.746 0.735 1.746 1.695 1.746c0.96 0 1.7-0.78 1.7-1.746z"></path>
<path fill="#fff" style="fill: var(--color1, #fff)" d="M88.072 27.908v2.48c0 0.932-0.542 1.547-1.401 1.547s-1.401-0.615-1.401-1.547v-2.48h0.3v2.48c0 0.763 0.407 1.243 1.101 1.243s1.095-0.48 1.095-1.243v-2.48h0.305z"></path>
<path fill="#fff" style="fill: var(--color1, #fff)" d="M91.36 30.801c0 0.525-0.373 1.136-1.288 1.136-0.712 0-1.192-0.452-1.322-0.904l0.289-0.090c0.090 0.322 0.441 0.688 1.033 0.688s0.982-0.322 0.982-0.831c0-0.474-0.373-0.615-0.943-0.769-0.525-0.141-1.204-0.339-1.204-1.090 0-0.643 0.525-1.101 1.135-1.101 0.553 0 0.972 0.294 1.142 0.825l-0.294 0.073c-0.13-0.401-0.424-0.598-0.847-0.598-0.446 0-0.83 0.322-0.83 0.802s0.379 0.638 0.977 0.797c0.536 0.146 1.17 0.334 1.17 1.061l0.002-0.001z"></path>
<path fill="#fff" style="fill: var(--color1, #fff)" d="M94.218 31.563v0.3h-2.18v-3.954h2.13v0.305h-1.83v1.451h1.701v0.3h-1.701v1.599l1.881-0.001z"></path>
</symbol>

</defs>
</svg>
